<?xml version="1.0" encoding="UTF-8" standalone="no"?>
<!DOCTYPE svg PUBLIC "-//W3C//DTD SVG 1.1//EN"
 "http://www.w3.org/Graphics/SVG/1.1/DTD/svg11.dtd">
<!-- Generated by graphviz version 13.1.2 (20250808.2320)
 -->
<!-- Pages: 1 -->
<svg width="864pt" height="356pt"
 viewBox="0.00 0.00 864.00 356.00" xmlns="http://www.w3.org/2000/svg" xmlns:xlink="http://www.w3.org/1999/xlink">
<g id="graph0" class="graph" transform="scale(0.628307 0.628307) rotate(0) translate(4 562.25)">
<polygon fill="white" stroke="none" points="-4,4 -4,-562.25 1371.12,-562.25 1371.12,4 -4,4"/>
<text xml:space="preserve" text-anchor="middle" x="683.56" y="-25.65" font-family="Times,serif" font-size="8.00">BoR Reasoning Chain Visualization</text>
<text xml:space="preserve" text-anchor="middle" x="683.56" y="-15.9" font-family="Times,serif" font-size="8.00">Generated: 2025&#45;11&#45;09T06:26:04.510142</text>
<text xml:space="preserve" text-anchor="middle" x="683.56" y="-6.15" font-family="Times,serif" font-size="8.00">Data from: 2025&#45;11&#45;09T00:55:52.866691+00:00</text>
<!-- prompt_1 -->
<g id="node1" class="node">
<title>prompt_1</title>
<path fill="#4a90e2" stroke="black" d="M368.12,-558.25C368.12,-558.25 98.63,-558.25 98.63,-558.25 92.62,-558.25 86.62,-552.25 86.62,-546.25 86.62,-546.25 86.62,-534.25 86.62,-534.25 86.62,-528.25 92.62,-522.25 98.62,-522.25 98.62,-522.25 368.12,-522.25 368.12,-522.25 374.12,-522.25 380.12,-528.25 380.12,-534.25 380.12,-534.25 380.12,-546.25 380.12,-546.25 380.12,-552.25 374.12,-558.25 368.12,-558.25"/>
<text xml:space="preserve" text-anchor="middle" x="233.38" y="-542.75" font-family="Arial" font-size="10.00" fill="white">PROMPT 1</text>
<text xml:space="preserve" text-anchor="middle" x="233.38" y="-530.75" font-family="Arial" font-size="10.00" fill="white">Explain the purpose of BoR SDK proof logging in one sentence.</text>
</g>
<!-- response_1 -->
<g id="node2" class="node">
<title>response_1</title>
<path fill="#f8e71c" stroke="black" d="M454.75,-464.12C454.75,-464.12 12,-464.12 12,-464.12 6,-464.12 0,-458.12 0,-452.12 0,-452.12 0,-432.12 0,-432.12 0,-426.12 6,-420.12 12,-420.12 12,-420.12 454.75,-420.12 454.75,-420.12 460.75,-420.12 466.75,-426.12 466.75,-432.12 466.75,-432.12 466.75,-452.12 466.75,-452.12 466.75,-458.12 460.75,-464.12 454.75,-464.12"/>
<text xml:space="preserve" text-anchor="middle" x="233.38" y="-450.62" font-family="Arial" font-size="10.00">RESPONSE 1</text>
<text xml:space="preserve" text-anchor="middle" x="233.38" y="-438.62" font-family="Arial" font-size="10.00">BoR SDK proof logging records cryptographic proofs of key events to provide tamper&#45;evident, verifiab...</text>
<text xml:space="preserve" text-anchor="middle" x="233.38" y="-426.62" font-family="Arial" font-size="10.00">[YELLOW]</text>
</g>
<!-- prompt_1&#45;&gt;response_1 -->
<g id="edge1" class="edge">
<title>prompt_1&#45;&gt;response_1</title>
<path fill="none" stroke="#f5a623" d="M233.38,-522.06C233.38,-509.24 233.38,-491.33 233.38,-475.81"/>
<polygon fill="#f5a623" stroke="#f5a623" points="236.88,-476.05 233.38,-466.05 229.88,-476.05 236.88,-476.05"/>
<text xml:space="preserve" text-anchor="middle" x="262.25" y="-496.65" font-family="Arial" font-size="8.00">hash: 02d0a5ab</text>
</g>
<!-- prompt_2 -->
<g id="node3" class="node">
<title>prompt_2</title>
<path fill="#4a90e2" stroke="black" d="M729.62,-558.25C729.62,-558.25 679.12,-558.25 679.12,-558.25 673.12,-558.25 667.12,-552.25 667.12,-546.25 667.12,-546.25 667.12,-534.25 667.12,-534.25 667.12,-528.25 673.12,-522.25 679.12,-522.25 679.12,-522.25 729.62,-522.25 729.62,-522.25 735.62,-522.25 741.62,-528.25 741.62,-534.25 741.62,-534.25 741.62,-546.25 741.62,-546.25 741.62,-552.25 735.62,-558.25 729.62,-558.25"/>
<text xml:space="preserve" text-anchor="middle" x="704.38" y="-542.75" font-family="Arial" font-size="10.00" fill="white">PROMPT 2</text>
<text xml:space="preserve" text-anchor="middle" x="704.38" y="-530.75" font-family="Arial" font-size="10.00" fill="white">What is 5+3?</text>
</g>
<!-- response_2 -->
<g id="node4" class="node">
<title>response_2</title>
<path fill="#d0021b" stroke="black" d="M911.5,-476.12C911.5,-476.12 497.25,-476.12 497.25,-476.12 491.25,-476.12 485.25,-470.12 485.25,-464.12 485.25,-464.12 485.25,-420.12 485.25,-420.12 485.25,-414.12 491.25,-408.12 497.25,-408.12 497.25,-408.12 911.5,-408.12 911.5,-408.12 917.5,-408.12 923.5,-414.12 923.5,-420.12 923.5,-420.12 923.5,-464.12 923.5,-464.12 923.5,-470.12 917.5,-476.12 911.5,-476.12"/>
<text xml:space="preserve" text-anchor="middle" x="704.38" y="-462.62" font-family="Arial" font-size="10.00" fill="white">RESPONSE 2</text>
<text xml:space="preserve" text-anchor="middle" x="704.38" y="-450.62" font-family="Arial" font-size="10.00" fill="white">8</text>
<text xml:space="preserve" text-anchor="middle" x="704.38" y="-426.62" font-family="Arial" font-size="10.00" fill="white">If you’d like a quick explanation: 5 + 3 means adding five and three together to get eight. Want ...</text>
<text xml:space="preserve" text-anchor="middle" x="704.38" y="-414.62" font-family="Arial" font-size="10.00" fill="white">[RED]</text>
</g>
<!-- prompt_2&#45;&gt;response_2 -->
<g id="edge2" class="edge">
<title>prompt_2&#45;&gt;response_2</title>
<path fill="none" stroke="#f5a623" d="M704.38,-522.06C704.38,-512.49 704.38,-500.08 704.38,-487.94"/>
<polygon fill="#f5a623" stroke="#f5a623" points="707.88,-488.01 704.38,-478.01 700.88,-488.01 707.88,-488.01"/>
<text xml:space="preserve" text-anchor="middle" x="733.25" y="-496.65" font-family="Arial" font-size="8.00">hash: da3d01a0</text>
</g>
<!-- prompt_3 -->
<g id="node5" class="node">
<title>prompt_3</title>
<path fill="#4a90e2" stroke="black" d="M777.62,-370.75C777.62,-370.75 631.12,-370.75 631.12,-370.75 625.12,-370.75 619.12,-364.75 619.12,-358.75 619.12,-358.75 619.12,-346.75 619.12,-346.75 619.12,-340.75 625.12,-334.75 631.12,-334.75 631.12,-334.75 777.62,-334.75 777.62,-334.75 783.62,-334.75 789.62,-340.75 789.62,-346.75 789.62,-346.75 789.62,-358.75 789.62,-358.75 789.62,-364.75 783.62,-370.75 777.62,-370.75"/>
<text xml:space="preserve" text-anchor="middle" x="704.38" y="-355.25" font-family="Arial" font-size="10.00" fill="white">PROMPT 3</text>
<text xml:space="preserve" text-anchor="middle" x="704.38" y="-343.25" font-family="Arial" font-size="10.00" fill="white">Multiply your previous answer by 2.</text>
</g>
<!-- response_2&#45;&gt;prompt_3 -->
<g id="edge3" class="edge">
<title>response_2&#45;&gt;prompt_3</title>
<path fill="none" stroke="#999999" stroke-dasharray="5,2" d="M704.38,-408.09C704.38,-399.65 704.38,-390.64 704.38,-382.44"/>
<polygon fill="#999999" stroke="#999999" points="707.88,-382.67 704.38,-372.67 700.88,-382.67 707.88,-382.67"/>
</g>
<!-- response_3 -->
<g id="node6" class="node">
<title>response_3</title>
<path fill="#d0021b" stroke="black" d="M923.12,-289C923.12,-289 485.62,-289 485.62,-289 479.62,-289 473.62,-283 473.62,-277 473.62,-277 473.62,-257 473.62,-257 473.62,-251 479.62,-245 485.62,-245 485.62,-245 923.12,-245 923.12,-245 929.12,-245 935.12,-251 935.12,-257 935.12,-257 935.12,-277 935.12,-277 935.12,-283 929.12,-289 923.12,-289"/>
<text xml:space="preserve" text-anchor="middle" x="704.38" y="-275.5" font-family="Arial" font-size="10.00" fill="white">RESPONSE 3</text>
<text xml:space="preserve" text-anchor="middle" x="704.38" y="-263.5" font-family="Arial" font-size="10.00" fill="white">I don’t have access to your previous answer in this chat. Please paste the previous answer (or the n...</text>
<text xml:space="preserve" text-anchor="middle" x="704.38" y="-251.5" font-family="Arial" font-size="10.00" fill="white">[RED]</text>
</g>
<!-- prompt_3&#45;&gt;response_3 -->
<g id="edge4" class="edge">
<title>prompt_3&#45;&gt;response_3</title>
<path fill="none" stroke="#f5a623" d="M704.38,-334.4C704.38,-324.72 704.38,-312.36 704.38,-300.92"/>
<polygon fill="#f5a623" stroke="#f5a623" points="707.88,-301.01 704.38,-291.01 700.88,-301.01 707.88,-301.01"/>
<text xml:space="preserve" text-anchor="middle" x="732.12" y="-309.15" font-family="Arial" font-size="8.00">hash: 9d3f74a5</text>
</g>
<!-- prompt_4 -->
<g id="node7" class="node">
<title>prompt_4</title>
<path fill="#4a90e2" stroke="black" d="M752.12,-208C752.12,-208 656.62,-208 656.62,-208 650.62,-208 644.62,-202 644.62,-196 644.62,-196 644.62,-184 644.62,-184 644.62,-178 650.62,-172 656.62,-172 656.62,-172 752.12,-172 752.12,-172 758.12,-172 764.12,-178 764.12,-184 764.12,-184 764.12,-196 764.12,-196 764.12,-202 758.12,-208 752.12,-208"/>
<text xml:space="preserve" text-anchor="middle" x="704.38" y="-192.5" font-family="Arial" font-size="10.00" fill="white">PROMPT 4</text>
<text xml:space="preserve" text-anchor="middle" x="704.38" y="-180.5" font-family="Arial" font-size="10.00" fill="white">What is the final result?</text>
</g>
<!-- response_3&#45;&gt;prompt_4 -->
<g id="edge5" class="edge">
<title>response_3&#45;&gt;prompt_4</title>
<path fill="none" stroke="#999999" stroke-dasharray="5,2" d="M704.38,-244.71C704.38,-236.82 704.38,-227.75 704.38,-219.33"/>
<polygon fill="#999999" stroke="#999999" points="707.88,-219.57 704.38,-209.57 700.88,-219.57 707.88,-219.57"/>
</g>
<!-- response_4 -->
<g id="node8" class="node">
<title>response_4</title>
<path fill="#d0021b" stroke="black" d="M875.5,-126.25C875.5,-126.25 533.25,-126.25 533.25,-126.25 527.25,-126.25 521.25,-120.25 521.25,-114.25 521.25,-114.25 521.25,-58.25 521.25,-58.25 521.25,-52.25 527.25,-46.25 533.25,-46.25 533.25,-46.25 875.5,-46.25 875.5,-46.25 881.5,-46.25 887.5,-52.25 887.5,-58.25 887.5,-58.25 887.5,-114.25 887.5,-114.25 887.5,-120.25 881.5,-126.25 875.5,-126.25"/>
<text xml:space="preserve" text-anchor="middle" x="704.38" y="-112.75" font-family="Arial" font-size="10.00" fill="white">RESPONSE 4</text>
<text xml:space="preserve" text-anchor="middle" x="704.38" y="-100.75" font-family="Arial" font-size="10.00" fill="white">I’m missing the context. Could you share the problem or task you’re referring to?</text>
<text xml:space="preserve" text-anchor="middle" x="704.38" y="-76.75" font-family="Arial" font-size="10.00" fill="white">Please provide:</text>
<text xml:space="preserve" text-anchor="middle" x="704.38" y="-64.75" font-family="Arial" font-size="10.00" fill="white">&#45;...</text>
<text xml:space="preserve" text-anchor="middle" x="704.38" y="-52.75" font-family="Arial" font-size="10.00" fill="white">[RED]</text>
</g>
<!-- prompt_4&#45;&gt;response_4 -->
<g id="edge6" class="edge">
<title>prompt_4&#45;&gt;response_4</title>
<path fill="none" stroke="#f5a623" d="M704.38,-171.74C704.38,-162.28 704.38,-150 704.38,-137.76"/>
<polygon fill="#f5a623" stroke="#f5a623" points="707.88,-138.12 704.38,-128.12 700.88,-138.12 707.88,-138.12"/>
<text xml:space="preserve" text-anchor="middle" x="732.12" y="-146.4" font-family="Arial" font-size="8.00">hash: 5af88252</text>
</g>
<!-- prompt_5 -->
<g id="node9" class="node">
<title>prompt_5</title>
<path fill="#4a90e2" stroke="black" d="M1179.62,-558.25C1179.62,-558.25 1129.12,-558.25 1129.12,-558.25 1123.12,-558.25 1117.12,-552.25 1117.12,-546.25 1117.12,-546.25 1117.12,-534.25 1117.12,-534.25 1117.12,-528.25 1123.12,-522.25 1129.12,-522.25 1129.12,-522.25 1179.62,-522.25 1179.62,-522.25 1185.62,-522.25 1191.62,-528.25 1191.62,-534.25 1191.62,-534.25 1191.62,-546.25 1191.62,-546.25 1191.62,-552.25 1185.62,-558.25 1179.62,-558.25"/>
<text xml:space="preserve" text-anchor="middle" x="1154.38" y="-542.75" font-family="Arial" font-size="10.00" fill="white">PROMPT 5</text>
<text xml:space="preserve" text-anchor="middle" x="1154.38" y="-530.75" font-family="Arial" font-size="10.00" fill="white">What is 2+2?</text>
</g>
<!-- response_5 -->
<g id="node10" class="node">
<title>response_5</title>
<path fill="#d0021b" stroke="black" d="M1355.12,-476.5C1355.12,-476.5 953.62,-476.5 953.62,-476.5 947.62,-476.5 941.62,-470.5 941.62,-464.5 941.62,-464.5 941.62,-419.75 941.62,-419.75 941.62,-413.75 947.62,-407.75 953.62,-407.75 953.62,-407.75 1355.12,-407.75 1355.12,-407.75 1361.12,-407.75 1367.12,-413.75 1367.12,-419.75 1367.12,-419.75 1367.12,-464.5 1367.12,-464.5 1367.12,-470.5 1361.12,-476.5 1355.12,-476.5"/>
<text xml:space="preserve" text-anchor="middle" x="1154.38" y="-463" font-family="Arial" font-size="10.00" fill="white">RESPONSE 5</text>
<text xml:space="preserve" text-anchor="middle" x="1154.38" y="-451" font-family="Arial" font-size="10.00" fill="white">4</text>
<text xml:space="preserve" text-anchor="middle" x="1154.38" y="-427" font-family="Arial" font-size="10.00" fill="white">In decimal (base&#45;10) it&#39;s 4. In binary (base&#45;2), since 2 is 10₂, 10₂ + 10₂ = 100₂, which is also ...</text>
<text xml:space="preserve" text-anchor="middle" x="1154.38" y="-414.25" font-family="Arial" font-size="10.00" fill="white">[RED]</text>
</g>
<!-- prompt_5&#45;&gt;response_5 -->
<g id="edge7" class="edge">
<title>prompt_5&#45;&gt;response_5</title>
<path fill="none" stroke="#f5a623" d="M1154.38,-522.06C1154.38,-512.57 1154.38,-500.29 1154.38,-488.25"/>
<polygon fill="#f5a623" stroke="#f5a623" points="1157.88,-488.4 1154.38,-478.4 1150.88,-488.4 1157.88,-488.4"/>
<text xml:space="preserve" text-anchor="middle" x="1182.12" y="-496.65" font-family="Arial" font-size="8.00">hash: 62ef0e92</text>
</g>
</g>
</svg>
