<?xml version="1.0" encoding="UTF-8" standalone="no"?>
<!DOCTYPE svg PUBLIC "-//W3C//DTD SVG 1.1//EN"
 "http://www.w3.org/Graphics/SVG/1.1/DTD/svg11.dtd">
<!-- Generated by graphviz version 13.1.2 (20250808.2320)
 -->
<!-- Pages: 1 -->
<svg width="762pt" height="320pt"
 viewBox="0.00 0.00 762.00 320.00" xmlns="http://www.w3.org/2000/svg" xmlns:xlink="http://www.w3.org/1999/xlink">
<g id="graph0" class="graph" transform="scale(1 1) rotate(0) translate(4 316.25)">
<polygon fill="white" stroke="none" points="-4,4 -4,-316.25 758.12,-316.25 758.12,4 -4,4"/>
<text xml:space="preserve" text-anchor="middle" x="377.06" y="-37.45" font-family="Times,serif" font-size="9.00">BoR Certificate Hierarchy</text>
<text xml:space="preserve" text-anchor="middle" x="377.06" y="-26.95" font-family="Times,serif" font-size="9.00">Session → Master Certificates → Step Certificates</text>
<text xml:space="preserve" text-anchor="middle" x="377.06" y="-16.45" font-family="Times,serif" font-size="9.00">Generated: 2025&#45;11&#45;09 06:13:33</text>
<text xml:space="preserve" text-anchor="middle" x="377.06" y="-5.95" font-family="Times,serif" font-size="9.00">Colors: Green = Safe | Yellow = Caution | Red = Hallucination Alert</text>
<!-- session -->
<g id="node1" class="node">
<title>session</title>
<path fill="#2c3e50" stroke="black" stroke-width="2" d="M460.12,-312.25C460.12,-312.25 349.62,-312.25 349.62,-312.25 343.62,-312.25 337.62,-306.25 337.62,-300.25 337.62,-300.25 337.62,-273.5 337.62,-273.5 337.62,-267.5 343.62,-261.5 349.62,-261.5 349.62,-261.5 460.12,-261.5 460.12,-261.5 466.12,-261.5 472.12,-267.5 472.12,-273.5 472.12,-273.5 472.12,-300.25 472.12,-300.25 472.12,-306.25 466.12,-312.25 460.12,-312.25"/>
<text xml:space="preserve" text-anchor="middle" x="404.88" y="-296.85" font-family="Arial" font-size="12.00" fill="white">SESSION MANIFEST</text>
<text xml:space="preserve" text-anchor="middle" x="404.88" y="-282.6" font-family="Arial" font-size="12.00" fill="white">ad59d167855ad78c...</text>
<text xml:space="preserve" text-anchor="middle" x="404.88" y="-268.35" font-family="Arial" font-size="12.00" fill="white">Total Steps: 5</text>
</g>
<!-- master_0 -->
<g id="node2" class="node">
<title>master_0</title>
<path fill="#34495e" stroke="black" d="M346,-215C346,-215 183.75,-215 183.75,-215 177.75,-215 171.75,-209 171.75,-203 171.75,-203 171.75,-159 171.75,-159 171.75,-153 177.75,-147 183.75,-147 183.75,-147 346,-147 346,-147 352,-147 358,-153 358,-159 358,-159 358,-203 358,-203 358,-209 352,-215 346,-215"/>
<text xml:space="preserve" text-anchor="middle" x="264.88" y="-201.5" font-family="Arial" font-size="10.00" fill="white">MASTER CERTIFICATE</text>
<text xml:space="preserve" text-anchor="middle" x="264.88" y="-189.5" font-family="Arial" font-size="10.00" fill="white">MASTER_CERTIFICATE_1762644754</text>
<text xml:space="preserve" text-anchor="middle" x="264.88" y="-177.5" font-family="Arial" font-size="10.00" fill="white">Hash: 2fb502cf9b0d...</text>
<text xml:space="preserve" text-anchor="middle" x="264.88" y="-165.5" font-family="Arial" font-size="10.00" fill="white">Steps: 1</text>
<text xml:space="preserve" text-anchor="middle" x="264.88" y="-153.5" font-family="Arial" font-size="10.00" fill="white">Status: VERIFIED</text>
</g>
<!-- session&#45;&gt;master_0 -->
<g id="edge1" class="edge">
<title>session&#45;&gt;master_0</title>
<path fill="none" stroke="#3498db" d="M371.7,-261.26C356,-249.61 336.84,-235.4 319.11,-222.24"/>
<polygon fill="#3498db" stroke="#3498db" points="321.33,-219.53 311.21,-216.38 317.16,-225.15 321.33,-219.53"/>
<text xml:space="preserve" text-anchor="middle" x="370.66" y="-234.95" font-family="Arial" font-size="9.00">aggregates</text>
</g>
<!-- master_1 -->
<g id="node3" class="node">
<title>master_1</title>
<path fill="#5d6d7e" stroke="black" d="M601,-215C601,-215 438.75,-215 438.75,-215 432.75,-215 426.75,-209 426.75,-203 426.75,-203 426.75,-159 426.75,-159 426.75,-153 432.75,-147 438.75,-147 438.75,-147 601,-147 601,-147 607,-147 613,-153 613,-159 613,-159 613,-203 613,-203 613,-209 607,-215 601,-215"/>
<text xml:space="preserve" text-anchor="middle" x="519.88" y="-201.5" font-family="Arial" font-size="10.00" fill="white">MASTER CERTIFICATE</text>
<text xml:space="preserve" text-anchor="middle" x="519.88" y="-189.5" font-family="Arial" font-size="10.00" fill="white">MASTER_CERTIFICATE_1762644770</text>
<text xml:space="preserve" text-anchor="middle" x="519.88" y="-177.5" font-family="Arial" font-size="10.00" fill="white">Hash: d3fb0c4e1f11...</text>
<text xml:space="preserve" text-anchor="middle" x="519.88" y="-165.5" font-family="Arial" font-size="10.00" fill="white">Steps: 3</text>
<text xml:space="preserve" text-anchor="middle" x="519.88" y="-153.5" font-family="Arial" font-size="10.00" fill="white">Status: VERIFIED</text>
</g>
<!-- session&#45;&gt;master_1 -->
<g id="edge2" class="edge">
<title>session&#45;&gt;master_1</title>
<path fill="none" stroke="#3498db" d="M432.13,-261.26C444.79,-249.82 460.18,-235.92 474.52,-222.97"/>
<polygon fill="#3498db" stroke="#3498db" points="476.61,-225.79 481.69,-216.49 471.92,-220.6 476.61,-225.79"/>
<text xml:space="preserve" text-anchor="middle" x="485.62" y="-234.95" font-family="Arial" font-size="9.00">aggregates</text>
</g>
<!-- step_1 -->
<g id="node4" class="node">
<title>step_1</title>
<path fill="#f39c12" stroke="black" d="M181.75,-110C181.75,-110 12,-110 12,-110 6,-110 0,-104 0,-98 0,-98 0,-72 0,-72 0,-66 6,-60 12,-60 12,-60 181.75,-60 181.75,-60 187.75,-60 193.75,-66 193.75,-72 193.75,-72 193.75,-98 193.75,-98 193.75,-104 187.75,-110 181.75,-110"/>
<text xml:space="preserve" text-anchor="middle" x="96.88" y="-97.45" font-family="Arial" font-size="9.00">Step 1</text>
<text xml:space="preserve" text-anchor="middle" x="96.88" y="-86.95" font-family="Arial" font-size="9.00">Explain the purpose of BoR SDK proof log...</text>
<text xml:space="preserve" text-anchor="middle" x="96.88" y="-76.45" font-family="Arial" font-size="9.00">Hash: 02d0a5abe5b1...</text>
<text xml:space="preserve" text-anchor="middle" x="96.88" y="-65.95" font-family="Arial" font-size="9.00">Guard: YELLOW</text>
</g>
<!-- master_0&#45;&gt;step_1 -->
<g id="edge3" class="edge">
<title>master_0&#45;&gt;step_1</title>
<path fill="none" stroke="#bdc3c7" stroke-dasharray="5,2" d="M205.17,-146.59C187.35,-136.63 167.94,-125.76 150.53,-116.02"/>
<polygon fill="#bdc3c7" stroke="#bdc3c7" points="152.3,-113 141.87,-111.17 148.88,-119.11 152.3,-113"/>
</g>
<!-- step_5 -->
<g id="node8" class="node">
<title>step_5</title>
<path fill="#e74c3c" stroke="black" d="M305.88,-110C305.88,-110 223.88,-110 223.88,-110 217.88,-110 211.88,-104 211.88,-98 211.88,-98 211.88,-72 211.88,-72 211.88,-66 217.88,-60 223.88,-60 223.88,-60 305.88,-60 305.88,-60 311.88,-60 317.88,-66 317.88,-72 317.88,-72 317.88,-98 317.88,-98 317.88,-104 311.88,-110 305.88,-110"/>
<text xml:space="preserve" text-anchor="middle" x="264.88" y="-97.45" font-family="Arial" font-size="9.00" fill="white">Step 5</text>
<text xml:space="preserve" text-anchor="middle" x="264.88" y="-86.95" font-family="Arial" font-size="9.00" fill="white">What is 2+2?</text>
<text xml:space="preserve" text-anchor="middle" x="264.88" y="-76.45" font-family="Arial" font-size="9.00" fill="white">Hash: 62ef0e92df20...</text>
<text xml:space="preserve" text-anchor="middle" x="264.88" y="-65.95" font-family="Arial" font-size="9.00" fill="white">Guard: RED</text>
</g>
<!-- master_0&#45;&gt;step_5 -->
<g id="edge7" class="edge">
<title>master_0&#45;&gt;step_5</title>
<path fill="none" stroke="#bdc3c7" stroke-dasharray="5,2" d="M264.88,-146.59C264.88,-138.58 264.88,-129.99 264.88,-121.87"/>
<polygon fill="#bdc3c7" stroke="#bdc3c7" points="268.38,-121.95 264.88,-111.95 261.38,-121.95 268.38,-121.95"/>
</g>
<!-- step_2 -->
<g id="node5" class="node">
<title>step_2</title>
<path fill="#e74c3c" stroke="black" d="M435.88,-110C435.88,-110 347.88,-110 347.88,-110 341.88,-110 335.88,-104 335.88,-98 335.88,-98 335.88,-72 335.88,-72 335.88,-66 341.88,-60 347.88,-60 347.88,-60 435.88,-60 435.88,-60 441.88,-60 447.88,-66 447.88,-72 447.88,-72 447.88,-98 447.88,-98 447.88,-104 441.88,-110 435.88,-110"/>
<text xml:space="preserve" text-anchor="middle" x="391.88" y="-97.45" font-family="Arial" font-size="9.00" fill="white">Step 2</text>
<text xml:space="preserve" text-anchor="middle" x="391.88" y="-86.95" font-family="Arial" font-size="9.00" fill="white">What is 5+3?</text>
<text xml:space="preserve" text-anchor="middle" x="391.88" y="-76.45" font-family="Arial" font-size="9.00" fill="white">Hash: da3d01a002e8...</text>
<text xml:space="preserve" text-anchor="middle" x="391.88" y="-65.95" font-family="Arial" font-size="9.00" fill="white">Guard: RED</text>
</g>
<!-- master_1&#45;&gt;step_2 -->
<g id="edge4" class="edge">
<title>master_1&#45;&gt;step_2</title>
<path fill="none" stroke="#bdc3c7" stroke-dasharray="5,2" d="M474.39,-146.59C461.32,-137 447.12,-126.57 434.25,-117.12"/>
<polygon fill="#bdc3c7" stroke="#bdc3c7" points="436.5,-114.43 426.37,-111.33 432.36,-120.07 436.5,-114.43"/>
</g>
<!-- step_3 -->
<g id="node6" class="node">
<title>step_3</title>
<path fill="#e74c3c" stroke="black" d="M613.5,-110C613.5,-110 478.25,-110 478.25,-110 472.25,-110 466.25,-104 466.25,-98 466.25,-98 466.25,-72 466.25,-72 466.25,-66 472.25,-60 478.25,-60 478.25,-60 613.5,-60 613.5,-60 619.5,-60 625.5,-66 625.5,-72 625.5,-72 625.5,-98 625.5,-98 625.5,-104 619.5,-110 613.5,-110"/>
<text xml:space="preserve" text-anchor="middle" x="545.88" y="-97.45" font-family="Arial" font-size="9.00" fill="white">Step 3</text>
<text xml:space="preserve" text-anchor="middle" x="545.88" y="-86.95" font-family="Arial" font-size="9.00" fill="white">Multiply your previous answer by 2.</text>
<text xml:space="preserve" text-anchor="middle" x="545.88" y="-76.45" font-family="Arial" font-size="9.00" fill="white">Hash: 9d3f74a50b82...</text>
<text xml:space="preserve" text-anchor="middle" x="545.88" y="-65.95" font-family="Arial" font-size="9.00" fill="white">Guard: RED</text>
</g>
<!-- master_1&#45;&gt;step_3 -->
<g id="edge5" class="edge">
<title>master_1&#45;&gt;step_3</title>
<path fill="none" stroke="#bdc3c7" stroke-dasharray="5,2" d="M529.11,-146.59C531.38,-138.4 533.82,-129.59 536.11,-121.31"/>
<polygon fill="#bdc3c7" stroke="#bdc3c7" points="539.42,-122.46 538.71,-111.89 532.67,-120.6 539.42,-122.46"/>
</g>
<!-- step_4 -->
<g id="node7" class="node">
<title>step_4</title>
<path fill="#e74c3c" stroke="black" d="M742.12,-110C742.12,-110 655.62,-110 655.62,-110 649.62,-110 643.62,-104 643.62,-98 643.62,-98 643.62,-72 643.62,-72 643.62,-66 649.62,-60 655.62,-60 655.62,-60 742.12,-60 742.12,-60 748.12,-60 754.12,-66 754.12,-72 754.12,-72 754.12,-98 754.12,-98 754.12,-104 748.12,-110 742.12,-110"/>
<text xml:space="preserve" text-anchor="middle" x="698.88" y="-97.45" font-family="Arial" font-size="9.00" fill="white">Step 4</text>
<text xml:space="preserve" text-anchor="middle" x="698.88" y="-86.95" font-family="Arial" font-size="9.00" fill="white">What is the final result?</text>
<text xml:space="preserve" text-anchor="middle" x="698.88" y="-76.45" font-family="Arial" font-size="9.00" fill="white">Hash: 5af882525346...</text>
<text xml:space="preserve" text-anchor="middle" x="698.88" y="-65.95" font-family="Arial" font-size="9.00" fill="white">Guard: RED</text>
</g>
<!-- master_1&#45;&gt;step_4 -->
<g id="edge6" class="edge">
<title>master_1&#45;&gt;step_4</title>
<path fill="none" stroke="#bdc3c7" stroke-dasharray="5,2" d="M583.49,-146.59C602.65,-136.53 623.54,-125.56 642.22,-115.75"/>
<polygon fill="#bdc3c7" stroke="#bdc3c7" points="643.78,-118.89 651,-111.14 640.52,-112.69 643.78,-118.89"/>
</g>
</g>
</svg>
