<?xml version="1.0" encoding="UTF-8" standalone="no"?>
<!DOCTYPE svg PUBLIC "-//W3C//DTD SVG 1.1//EN"
 "http://www.w3.org/Graphics/SVG/1.1/DTD/svg11.dtd">
<!-- Generated by graphviz version 13.1.2 (20250808.2320)
 -->
<!-- Pages: 1 -->
<svg width="617pt" height="423pt"
 viewBox="0.00 0.00 617.00 423.00" xmlns="http://www.w3.org/2000/svg" xmlns:xlink="http://www.w3.org/1999/xlink">
<g id="graph0" class="graph" transform="scale(1 1) rotate(0) translate(36 386.6)">
<defs>
<linearGradient id="graph0_l_0" gradientUnits="userSpaceOnUse" x1="-36" y1="-175.3" x2="580.75" y2="-175.3" >
<stop offset="0" style="stop-color:#0d1117;stop-opacity:1.;"/>
<stop offset="1" style="stop-color:#000000;stop-opacity:1.;"/>
</linearGradient>
</defs>
<polygon fill="url(#graph0_l_0)" stroke="none" points="-36,36 -36,-386.6 580.75,-386.6 580.75,36 -36,36"/>
<text xml:space="preserve" text-anchor="middle" x="272.38" y="-20.75" font-family="Inter, Arial" font-size="10.00" fill="#8b949e">Guard Summary: 🟢 1 &#160;🟡 0 &#160;🔴 0 &#160;| &#160;Chain Status: ✅ VERIFIEDBoR&#45;Verified • Deterministic Replay • Hallucination&#45;Proof</text>
<text xml:space="preserve" text-anchor="middle" x="272.38" y="-6.5" font-family="Inter, Arial" font-size="10.00" fill="#8b949e">Generated: 2025&#45;11&#45;09 15:34:12</text>
<!-- prompt_1 -->
<g id="node1" class="node">
<title>prompt_1</title>
<g id="a_node1"><a xlink:title="Step 1 Prompt&#10;Test extraction pipeline">
<defs>
<linearGradient id="node1_l_1" gradientUnits="userSpaceOnUse" x1="192.27" y1="-315.45" x2="352.48" y2="-315.45" >
<stop offset="0" style="stop-color:#4a90e2;stop-opacity:1.;"/>
<stop offset="1" style="stop-color:#357abd;stop-opacity:1.;"/>
</linearGradient>
</defs>
<path fill="url(#node1_l_1)" stroke="black" stroke-width="0" d="M340.48,-350.6C340.48,-350.6 204.28,-350.6 204.28,-350.6 198.28,-350.6 192.28,-344.6 192.28,-338.6 192.28,-338.6 192.28,-292.3 192.28,-292.3 192.28,-286.3 198.28,-280.3 204.28,-280.3 204.28,-280.3 340.48,-280.3 340.48,-280.3 346.48,-280.3 352.48,-286.3 352.48,-292.3 352.48,-292.3 352.48,-338.6 352.48,-338.6 352.48,-344.6 346.48,-350.6 340.48,-350.6"/>
<text xml:space="preserve" text-anchor="middle" x="272.38" y="-325.75" font-family="Inter, Arial" font-size="11.00" fill="#ffffff">⚡ STEP 1 — PROMPT</text>
<text xml:space="preserve" text-anchor="middle" x="272.38" y="-297.75" font-family="Inter, Arial" font-size="11.00" fill="#ffffff">Test extraction pipeline</text>
</a>
</g>
</g>
<!-- response_1 -->
<g id="node2" class="node">
<title>response_1</title>
<g id="a_node2"><a xlink:title="Review — Trust Score: 76%&#10;Response: This is a test response for extraction pipeline validation....&#10;No issues detected">
<defs>
<linearGradient id="node2_l_2" gradientUnits="userSpaceOnUse" x1="119.15" y1="-120.28" x2="425.6" y2="-120.28" >
<stop offset="0" style="stop-color:#2ecc71;stop-opacity:1.;"/>
<stop offset="1" style="stop-color:#27ae60;stop-opacity:1.;"/>
</linearGradient>
</defs>
<path fill="url(#node2_l_2)" stroke="black" stroke-width="0" d="M413.6,-182.3C413.6,-182.3 131.15,-182.3 131.15,-182.3 125.15,-182.3 119.15,-176.3 119.15,-170.3 119.15,-170.3 119.15,-70.25 119.15,-70.25 119.15,-64.25 125.15,-58.25 131.15,-58.25 131.15,-58.25 413.6,-58.25 413.6,-58.25 419.6,-58.25 425.6,-64.25 425.6,-70.25 425.6,-70.25 425.6,-170.3 425.6,-170.3 425.6,-176.3 419.6,-182.3 413.6,-182.3"/>
<text xml:space="preserve" text-anchor="middle" x="272.38" y="-157.45" font-family="Inter, Arial" font-size="11.00" fill="#ffffff">💬 RESPONSE 1</text>
<text xml:space="preserve" text-anchor="middle" x="272.38" y="-129.45" font-family="Inter, Arial" font-size="11.00" fill="#ffffff">This is a test response for extraction pipeline validation.</text>
<text xml:space="preserve" text-anchor="middle" x="272.38" y="-102.95" font-family="Inter, Arial" font-size="11.00" fill="#ffffff">[✓ GREEN]</text>
<text xml:space="preserve" text-anchor="middle" x="272.38" y="-75.7" font-family="Inter, Arial" font-size="11.00" fill="#ffffff">Trust: 76% (Review)</text>
</a>
</g>
</g>
<!-- prompt_1&#45;&gt;response_1 -->
<g id="edge1" class="edge">
<title>prompt_1&#45;&gt;response_1</title>
<path fill="none" stroke="#58a6ff" stroke-width="2.5" d="M272.38,-280.36C272.38,-256.36 272.38,-223.33 272.38,-193.59"/>
<polygon fill="#58a6ff" stroke="#58a6ff" stroke-width="2.5" points="275.18,-193.74 272.38,-185.74 269.58,-193.74 275.18,-193.74"/>
<text xml:space="preserve" text-anchor="middle" x="300.12" y="-228.75" font-family="Inter, Arial" font-size="9.00" fill="#79c0ff"> &#160;🔒 efcf738e &#160;</text>
</g>
</g>
</svg>
